<mxfile host="app.diagrams.net" modified="2024-06-28T09:17:20.342Z" agent="Mozilla/5.0 (Windows NT 10.0; Win64; x64) AppleWebKit/537.36 (KHTML, like Gecko) Chrome/127.0.0.0 Safari/537.36 Edg/127.0.0.0" etag="6ZyDj9ZAO35lo2vGzVT9" version="24.6.2" type="github">
  <diagram name="第 1 页" id="JpJuvLmKtG-MRXJeiW7m">
    <mxGraphModel dx="2357" dy="659" grid="1" gridSize="10" guides="1" tooltips="1" connect="1" arrows="1" fold="1" page="1" pageScale="1" pageWidth="1169" pageHeight="827" math="0" shadow="0">
      <root>
        <mxCell id="0" />
        <mxCell id="1" parent="0" />
        <mxCell id="BcCwPTK8j7OGMrzo-Ye--43" style="edgeStyle=orthogonalEdgeStyle;rounded=0;orthogonalLoop=1;jettySize=auto;html=1;entryX=0;entryY=0.5;entryDx=0;entryDy=0;" edge="1" parent="1" source="Lk9VKCeSr0YpM7N94rxa-3" target="BcCwPTK8j7OGMrzo-Ye--42">
          <mxGeometry relative="1" as="geometry" />
        </mxCell>
        <mxCell id="BcCwPTK8j7OGMrzo-Ye--67" style="edgeStyle=orthogonalEdgeStyle;rounded=0;orthogonalLoop=1;jettySize=auto;html=1;entryX=0;entryY=0.25;entryDx=0;entryDy=0;" edge="1" parent="1" source="Lk9VKCeSr0YpM7N94rxa-3" target="BcCwPTK8j7OGMrzo-Ye--66">
          <mxGeometry relative="1" as="geometry">
            <Array as="points">
              <mxPoint x="200" y="835" />
            </Array>
          </mxGeometry>
        </mxCell>
        <mxCell id="Lk9VKCeSr0YpM7N94rxa-3" value="原始语义信息&lt;br&gt;图像/视频" style="rounded=1;whiteSpace=wrap;html=1;" parent="1" vertex="1">
          <mxGeometry x="140" y="550" width="130" height="70" as="geometry" />
        </mxCell>
        <mxCell id="BcCwPTK8j7OGMrzo-Ye--45" style="edgeStyle=orthogonalEdgeStyle;rounded=0;orthogonalLoop=1;jettySize=auto;html=1;entryX=0;entryY=0.5;entryDx=0;entryDy=0;" edge="1" parent="1" source="BcCwPTK8j7OGMrzo-Ye--42" target="BcCwPTK8j7OGMrzo-Ye--44">
          <mxGeometry relative="1" as="geometry" />
        </mxCell>
        <mxCell id="BcCwPTK8j7OGMrzo-Ye--42" value="图像/视频提取模块" style="rounded=0;whiteSpace=wrap;html=1;" vertex="1" parent="1">
          <mxGeometry x="340" y="555" width="120" height="60" as="geometry" />
        </mxCell>
        <mxCell id="BcCwPTK8j7OGMrzo-Ye--58" style="edgeStyle=orthogonalEdgeStyle;rounded=0;orthogonalLoop=1;jettySize=auto;html=1;entryX=0;entryY=0.5;entryDx=0;entryDy=0;" edge="1" parent="1" source="BcCwPTK8j7OGMrzo-Ye--44" target="BcCwPTK8j7OGMrzo-Ye--55">
          <mxGeometry relative="1" as="geometry" />
        </mxCell>
        <mxCell id="BcCwPTK8j7OGMrzo-Ye--61" style="edgeStyle=orthogonalEdgeStyle;rounded=0;orthogonalLoop=1;jettySize=auto;html=1;" edge="1" parent="1" source="BcCwPTK8j7OGMrzo-Ye--44" target="BcCwPTK8j7OGMrzo-Ye--60">
          <mxGeometry relative="1" as="geometry" />
        </mxCell>
        <mxCell id="BcCwPTK8j7OGMrzo-Ye--44" value="多嵌入特征语义信息" style="rounded=1;whiteSpace=wrap;html=1;" vertex="1" parent="1">
          <mxGeometry x="550" y="555" width="120" height="60" as="geometry" />
        </mxCell>
        <mxCell id="BcCwPTK8j7OGMrzo-Ye--46" style="edgeStyle=orthogonalEdgeStyle;rounded=0;orthogonalLoop=1;jettySize=auto;html=1;entryX=0;entryY=0.5;entryDx=0;entryDy=0;" edge="1" parent="1" source="BcCwPTK8j7OGMrzo-Ye--47" target="BcCwPTK8j7OGMrzo-Ye--48">
          <mxGeometry relative="1" as="geometry" />
        </mxCell>
        <mxCell id="BcCwPTK8j7OGMrzo-Ye--62" style="edgeStyle=orthogonalEdgeStyle;rounded=0;orthogonalLoop=1;jettySize=auto;html=1;entryX=0;entryY=0.5;entryDx=0;entryDy=0;" edge="1" parent="1" source="BcCwPTK8j7OGMrzo-Ye--47" target="BcCwPTK8j7OGMrzo-Ye--60">
          <mxGeometry relative="1" as="geometry">
            <Array as="points">
              <mxPoint x="40" y="760" />
            </Array>
          </mxGeometry>
        </mxCell>
        <mxCell id="BcCwPTK8j7OGMrzo-Ye--99" style="edgeStyle=orthogonalEdgeStyle;rounded=0;orthogonalLoop=1;jettySize=auto;html=1;entryX=0;entryY=0.75;entryDx=0;entryDy=0;" edge="1" parent="1" source="BcCwPTK8j7OGMrzo-Ye--47" target="BcCwPTK8j7OGMrzo-Ye--66">
          <mxGeometry relative="1" as="geometry">
            <Array as="points">
              <mxPoint x="20" y="865" />
            </Array>
          </mxGeometry>
        </mxCell>
        <mxCell id="BcCwPTK8j7OGMrzo-Ye--47" value="用户提示词及&lt;span style=&quot;background-color: initial;&quot;&gt;需求参数&lt;/span&gt;" style="rounded=1;whiteSpace=wrap;html=1;" vertex="1" parent="1">
          <mxGeometry x="-20" y="360" width="130" height="70" as="geometry" />
        </mxCell>
        <mxCell id="BcCwPTK8j7OGMrzo-Ye--51" style="edgeStyle=orthogonalEdgeStyle;rounded=0;orthogonalLoop=1;jettySize=auto;html=1;entryX=0;entryY=0.5;entryDx=0;entryDy=0;" edge="1" parent="1" source="BcCwPTK8j7OGMrzo-Ye--48" target="BcCwPTK8j7OGMrzo-Ye--50">
          <mxGeometry relative="1" as="geometry" />
        </mxCell>
        <mxCell id="BcCwPTK8j7OGMrzo-Ye--48" value="提示词及需求参数&lt;div&gt;编码模块&lt;/div&gt;" style="rounded=0;whiteSpace=wrap;html=1;" vertex="1" parent="1">
          <mxGeometry x="160" y="365" width="120" height="60" as="geometry" />
        </mxCell>
        <mxCell id="BcCwPTK8j7OGMrzo-Ye--53" style="edgeStyle=orthogonalEdgeStyle;rounded=0;orthogonalLoop=1;jettySize=auto;html=1;entryX=0.5;entryY=0;entryDx=0;entryDy=0;" edge="1" parent="1" source="BcCwPTK8j7OGMrzo-Ye--50" target="BcCwPTK8j7OGMrzo-Ye--52">
          <mxGeometry relative="1" as="geometry" />
        </mxCell>
        <mxCell id="BcCwPTK8j7OGMrzo-Ye--88" style="edgeStyle=orthogonalEdgeStyle;rounded=0;orthogonalLoop=1;jettySize=auto;html=1;entryX=0.5;entryY=0;entryDx=0;entryDy=0;" edge="1" parent="1" source="BcCwPTK8j7OGMrzo-Ye--50" target="BcCwPTK8j7OGMrzo-Ye--55">
          <mxGeometry relative="1" as="geometry">
            <mxPoint x="850" y="550" as="targetPoint" />
          </mxGeometry>
        </mxCell>
        <mxCell id="BcCwPTK8j7OGMrzo-Ye--50" value="提示词向量&lt;div&gt;及需求参数码流&lt;/div&gt;" style="rounded=1;whiteSpace=wrap;html=1;" vertex="1" parent="1">
          <mxGeometry x="340" y="365" width="120" height="60" as="geometry" />
        </mxCell>
        <mxCell id="BcCwPTK8j7OGMrzo-Ye--54" style="edgeStyle=orthogonalEdgeStyle;rounded=0;orthogonalLoop=1;jettySize=auto;html=1;entryX=0.5;entryY=0;entryDx=0;entryDy=0;" edge="1" parent="1" source="BcCwPTK8j7OGMrzo-Ye--52" target="BcCwPTK8j7OGMrzo-Ye--42">
          <mxGeometry relative="1" as="geometry" />
        </mxCell>
        <mxCell id="BcCwPTK8j7OGMrzo-Ye--52" value="提示词向量解码模块" style="rounded=0;whiteSpace=wrap;html=1;" vertex="1" parent="1">
          <mxGeometry x="340" y="460" width="120" height="60" as="geometry" />
        </mxCell>
        <mxCell id="BcCwPTK8j7OGMrzo-Ye--59" style="edgeStyle=orthogonalEdgeStyle;rounded=0;orthogonalLoop=1;jettySize=auto;html=1;entryX=0;entryY=0.5;entryDx=0;entryDy=0;" edge="1" parent="1" source="BcCwPTK8j7OGMrzo-Ye--55" target="BcCwPTK8j7OGMrzo-Ye--57">
          <mxGeometry relative="1" as="geometry" />
        </mxCell>
        <mxCell id="BcCwPTK8j7OGMrzo-Ye--55" value="语义信息编码及码流压缩模块" style="rounded=0;whiteSpace=wrap;html=1;" vertex="1" parent="1">
          <mxGeometry x="720" y="555" width="120" height="60" as="geometry" />
        </mxCell>
        <mxCell id="BcCwPTK8j7OGMrzo-Ye--57" value="二进制码流" style="rounded=1;whiteSpace=wrap;html=1;" vertex="1" parent="1">
          <mxGeometry x="890" y="555" width="120" height="60" as="geometry" />
        </mxCell>
        <mxCell id="BcCwPTK8j7OGMrzo-Ye--64" style="edgeStyle=orthogonalEdgeStyle;rounded=0;orthogonalLoop=1;jettySize=auto;html=1;entryX=0.5;entryY=0;entryDx=0;entryDy=0;" edge="1" parent="1" source="BcCwPTK8j7OGMrzo-Ye--60" target="BcCwPTK8j7OGMrzo-Ye--63">
          <mxGeometry relative="1" as="geometry" />
        </mxCell>
        <mxCell id="BcCwPTK8j7OGMrzo-Ye--60" value="生成式AI解码模块" style="rounded=0;whiteSpace=wrap;html=1;" vertex="1" parent="1">
          <mxGeometry x="550" y="730" width="120" height="60" as="geometry" />
        </mxCell>
        <mxCell id="BcCwPTK8j7OGMrzo-Ye--68" style="edgeStyle=orthogonalEdgeStyle;rounded=0;orthogonalLoop=1;jettySize=auto;html=1;entryX=1;entryY=0.5;entryDx=0;entryDy=0;" edge="1" parent="1" source="BcCwPTK8j7OGMrzo-Ye--63" target="BcCwPTK8j7OGMrzo-Ye--66">
          <mxGeometry relative="1" as="geometry" />
        </mxCell>
        <mxCell id="BcCwPTK8j7OGMrzo-Ye--63" value="待迭代图像/视频" style="rounded=1;whiteSpace=wrap;html=1;" vertex="1" parent="1">
          <mxGeometry x="550" y="820" width="120" height="60" as="geometry" />
        </mxCell>
        <mxCell id="BcCwPTK8j7OGMrzo-Ye--74" style="edgeStyle=orthogonalEdgeStyle;rounded=0;orthogonalLoop=1;jettySize=auto;html=1;" edge="1" parent="1" source="BcCwPTK8j7OGMrzo-Ye--66" target="BcCwPTK8j7OGMrzo-Ye--71">
          <mxGeometry relative="1" as="geometry" />
        </mxCell>
        <mxCell id="BcCwPTK8j7OGMrzo-Ye--75" style="edgeStyle=orthogonalEdgeStyle;rounded=0;orthogonalLoop=1;jettySize=auto;html=1;" edge="1" parent="1" source="BcCwPTK8j7OGMrzo-Ye--66" target="BcCwPTK8j7OGMrzo-Ye--69">
          <mxGeometry relative="1" as="geometry">
            <Array as="points">
              <mxPoint x="400" y="730" />
              <mxPoint x="285" y="730" />
            </Array>
          </mxGeometry>
        </mxCell>
        <mxCell id="BcCwPTK8j7OGMrzo-Ye--94" style="edgeStyle=orthogonalEdgeStyle;rounded=0;orthogonalLoop=1;jettySize=auto;html=1;entryX=0.5;entryY=0;entryDx=0;entryDy=0;" edge="1" parent="1" source="BcCwPTK8j7OGMrzo-Ye--66" target="BcCwPTK8j7OGMrzo-Ye--93">
          <mxGeometry relative="1" as="geometry" />
        </mxCell>
        <mxCell id="BcCwPTK8j7OGMrzo-Ye--66" value="图像/视频质量综合评价模块" style="rounded=0;whiteSpace=wrap;html=1;" vertex="1" parent="1">
          <mxGeometry x="280" y="820" width="240" height="60" as="geometry" />
        </mxCell>
        <mxCell id="BcCwPTK8j7OGMrzo-Ye--69" value="语义优化模块" style="rounded=0;whiteSpace=wrap;html=1;" vertex="1" parent="1">
          <mxGeometry x="240" y="665" width="90" height="30" as="geometry" />
        </mxCell>
        <mxCell id="BcCwPTK8j7OGMrzo-Ye--70" value="多嵌入特征优化模块" style="rounded=0;whiteSpace=wrap;html=1;" vertex="1" parent="1">
          <mxGeometry x="465" y="665" width="110" height="30" as="geometry" />
        </mxCell>
        <mxCell id="BcCwPTK8j7OGMrzo-Ye--71" value="表征指导模块" style="rounded=0;whiteSpace=wrap;html=1;" vertex="1" parent="1">
          <mxGeometry x="355" y="665" width="90" height="30" as="geometry" />
        </mxCell>
        <mxCell id="BcCwPTK8j7OGMrzo-Ye--73" style="edgeStyle=orthogonalEdgeStyle;rounded=0;orthogonalLoop=1;jettySize=auto;html=1;entryX=0.458;entryY=0.978;entryDx=0;entryDy=0;entryPerimeter=0;" edge="1" parent="1" source="BcCwPTK8j7OGMrzo-Ye--66" target="BcCwPTK8j7OGMrzo-Ye--70">
          <mxGeometry relative="1" as="geometry">
            <Array as="points">
              <mxPoint x="400" y="730" />
              <mxPoint x="515" y="730" />
            </Array>
          </mxGeometry>
        </mxCell>
        <mxCell id="BcCwPTK8j7OGMrzo-Ye--77" value="" style="endArrow=classic;html=1;rounded=0;entryX=0.75;entryY=1;entryDx=0;entryDy=0;exitX=0.5;exitY=0;exitDx=0;exitDy=0;" edge="1" parent="1" source="BcCwPTK8j7OGMrzo-Ye--69" target="Lk9VKCeSr0YpM7N94rxa-3">
          <mxGeometry width="50" height="50" relative="1" as="geometry">
            <mxPoint x="290" y="660" as="sourcePoint" />
            <mxPoint x="350" y="600" as="targetPoint" />
          </mxGeometry>
        </mxCell>
        <mxCell id="BcCwPTK8j7OGMrzo-Ye--78" value="" style="endArrow=classic;html=1;rounded=0;entryX=0.5;entryY=1;entryDx=0;entryDy=0;exitX=0.5;exitY=0;exitDx=0;exitDy=0;" edge="1" parent="1" target="BcCwPTK8j7OGMrzo-Ye--42">
          <mxGeometry width="50" height="50" relative="1" as="geometry">
            <mxPoint x="400" y="665" as="sourcePoint" />
            <mxPoint x="373" y="620" as="targetPoint" />
          </mxGeometry>
        </mxCell>
        <mxCell id="BcCwPTK8j7OGMrzo-Ye--79" value="" style="endArrow=classic;html=1;rounded=0;entryX=0.079;entryY=0.989;entryDx=0;entryDy=0;exitX=0.5;exitY=0;exitDx=0;exitDy=0;entryPerimeter=0;" edge="1" parent="1" target="BcCwPTK8j7OGMrzo-Ye--44">
          <mxGeometry width="50" height="50" relative="1" as="geometry">
            <mxPoint x="520" y="665" as="sourcePoint" />
            <mxPoint x="550" y="615" as="targetPoint" />
          </mxGeometry>
        </mxCell>
        <mxCell id="BcCwPTK8j7OGMrzo-Ye--83" style="edgeStyle=orthogonalEdgeStyle;rounded=0;orthogonalLoop=1;jettySize=auto;html=1;entryX=0;entryY=0.5;entryDx=0;entryDy=0;" edge="1" parent="1" source="BcCwPTK8j7OGMrzo-Ye--80" target="BcCwPTK8j7OGMrzo-Ye--82">
          <mxGeometry relative="1" as="geometry" />
        </mxCell>
        <mxCell id="BcCwPTK8j7OGMrzo-Ye--80" value="二进制码流" style="rounded=1;whiteSpace=wrap;html=1;" vertex="1" parent="1">
          <mxGeometry x="70" y="1090" width="120" height="60" as="geometry" />
        </mxCell>
        <mxCell id="BcCwPTK8j7OGMrzo-Ye--86" style="edgeStyle=orthogonalEdgeStyle;rounded=0;orthogonalLoop=1;jettySize=auto;html=1;entryX=0;entryY=0.5;entryDx=0;entryDy=0;" edge="1" parent="1" source="BcCwPTK8j7OGMrzo-Ye--81" target="BcCwPTK8j7OGMrzo-Ye--85">
          <mxGeometry relative="1" as="geometry" />
        </mxCell>
        <mxCell id="BcCwPTK8j7OGMrzo-Ye--81" value="生成式AI解码模块" style="rounded=0;whiteSpace=wrap;html=1;" vertex="1" parent="1">
          <mxGeometry x="400" y="1090" width="120" height="60" as="geometry" />
        </mxCell>
        <mxCell id="BcCwPTK8j7OGMrzo-Ye--84" style="edgeStyle=orthogonalEdgeStyle;rounded=0;orthogonalLoop=1;jettySize=auto;html=1;entryX=0;entryY=0.5;entryDx=0;entryDy=0;" edge="1" parent="1" source="BcCwPTK8j7OGMrzo-Ye--82" target="BcCwPTK8j7OGMrzo-Ye--81">
          <mxGeometry relative="1" as="geometry" />
        </mxCell>
        <mxCell id="BcCwPTK8j7OGMrzo-Ye--82" value="码流解码模块" style="rounded=0;whiteSpace=wrap;html=1;" vertex="1" parent="1">
          <mxGeometry x="235" y="1090" width="120" height="60" as="geometry" />
        </mxCell>
        <mxCell id="BcCwPTK8j7OGMrzo-Ye--85" value="基于语义重建的&lt;div&gt;图像/视频&lt;/div&gt;" style="rounded=1;whiteSpace=wrap;html=1;" vertex="1" parent="1">
          <mxGeometry x="565" y="1090" width="120" height="60" as="geometry" />
        </mxCell>
        <mxCell id="BcCwPTK8j7OGMrzo-Ye--90" value="&lt;font style=&quot;font-size: 18px;&quot;&gt;图像/视频编码器&lt;/font&gt;" style="text;html=1;align=center;verticalAlign=middle;resizable=0;points=[];autosize=1;strokeColor=none;fillColor=none;" vertex="1" parent="1">
          <mxGeometry x="35" y="213" width="150" height="40" as="geometry" />
        </mxCell>
        <mxCell id="BcCwPTK8j7OGMrzo-Ye--91" value="&lt;font style=&quot;font-size: 18px;&quot;&gt;图像/视频解码器&lt;/font&gt;" style="text;html=1;align=center;verticalAlign=middle;resizable=0;points=[];autosize=1;strokeColor=none;fillColor=none;" vertex="1" parent="1">
          <mxGeometry x="20" y="1020" width="150" height="40" as="geometry" />
        </mxCell>
        <mxCell id="BcCwPTK8j7OGMrzo-Ye--97" style="edgeStyle=orthogonalEdgeStyle;rounded=0;orthogonalLoop=1;jettySize=auto;html=1;entryX=0.5;entryY=1;entryDx=0;entryDy=0;" edge="1" parent="1" source="BcCwPTK8j7OGMrzo-Ye--93" target="BcCwPTK8j7OGMrzo-Ye--55">
          <mxGeometry relative="1" as="geometry" />
        </mxCell>
        <mxCell id="BcCwPTK8j7OGMrzo-Ye--93" value="是否&lt;div&gt;迭代完成&lt;/div&gt;" style="rhombus;whiteSpace=wrap;html=1;" vertex="1" parent="1">
          <mxGeometry x="360" y="910" width="80" height="80" as="geometry" />
        </mxCell>
        <mxCell id="BcCwPTK8j7OGMrzo-Ye--95" style="edgeStyle=orthogonalEdgeStyle;rounded=0;orthogonalLoop=1;jettySize=auto;html=1;entryX=0.117;entryY=1.017;entryDx=0;entryDy=0;entryPerimeter=0;" edge="1" parent="1" source="BcCwPTK8j7OGMrzo-Ye--93" target="BcCwPTK8j7OGMrzo-Ye--66">
          <mxGeometry relative="1" as="geometry">
            <Array as="points">
              <mxPoint x="308" y="950" />
            </Array>
          </mxGeometry>
        </mxCell>
        <mxCell id="BcCwPTK8j7OGMrzo-Ye--96" value="否" style="text;html=1;align=center;verticalAlign=middle;resizable=0;points=[];autosize=1;strokeColor=none;fillColor=none;" vertex="1" parent="1">
          <mxGeometry x="320" y="918" width="40" height="30" as="geometry" />
        </mxCell>
        <mxCell id="BcCwPTK8j7OGMrzo-Ye--98" value="是" style="text;html=1;align=center;verticalAlign=middle;resizable=0;points=[];autosize=1;strokeColor=none;fillColor=none;" vertex="1" parent="1">
          <mxGeometry x="445" y="918" width="40" height="30" as="geometry" />
        </mxCell>
      </root>
    </mxGraphModel>
  </diagram>
</mxfile>
